PathFileType	4	(X/Y/Z)	Patient4_TMGait_0pt3_01_right_19.trc.trc
DataRate	CameraRate	NumFrames	NumMarkers	Units	OrigDataRate	OrigDataStartFrame	OrigNumFrames
51.851851851852	51.851851851852	4	33	mm	51.851851851852	53	       141
Frame#	Time	Sacral			L.Shoulder			Chest			R.Shoulder			Neck			R.ASIS			L.ASIS			R.Thigh.Superior			R.Thigh.Lateral			R.Thigh.Inferior			R.Patella			L.Thigh.Superior			L.Thigh.Lateral			L.Thigh.Inferior			L.Patella			L.Shank.Superior			L.Shank.Lateral			L.Shank.Inferior			R.Shank.Superior			R.Shank.Lateral			R.Shank.Inferior			R.Heel			R.Midfoot.Superior			R.Midfoot.Lateral			R.Toe			L.Heel			L.Midfoot.Lateral			L.Midfoot.Superior			L.Toe			L.Elbow			L.Wrist			R.Elbow			R.Wrist			
		X1	Y1	Z1	X2	Y2	Z2	X3	Y3	Z3	X4	Y4	Z4	X5	Y5	Z5	X6	Y6	Z6	X7	Y7	Z7	X8	Y8	Z8	X9	Y9	Z9	X10	Y10	Z10	X11	Y11	Z11	X12	Y12	Z12	X13	Y13	Z13	X14	Y14	Z14	X15	Y15	Z15	X16	Y16	Z16	X17	Y17	Z17	X18	Y18	Z18	X19	Y19	Z19	X20	Y20	Z20	X21	Y21	Z21	X22	Y22	Z22	X23	Y23	Z23	X24	Y24	Z24	X25	Y25	Z25	X26	Y26	Z26	X27	Y27	Z27	X28	Y28	Z28	X29	Y29	Z29	X30	Y30	Z30	X31	Y31	Z31	X32	Y32	Z32	X33	Y33	Z33	

53	35.532857142857	735.821792409226	985.530254637788	588.538026339535	927.287758605387	1421.490000999805	422.656023048076	1014.176930756309	1352.782324046394	592.870528464240	913.201683454329	1424.737560186617	757.969706525003	897.621410155934	1482.529801597302	579.807179593497	963.442498887875	933.154395329340	717.981581355163	961.673524004949	953.441636418795	443.749644526600	1020.902447135877	735.580595720562	679.433859615123	944.842827853750	615.621250351091	724.840419293981	1030.538776172904	573.361247675934	646.708039350985	1035.652200419590	477.534297313166	648.082122338028	1045.305336304991	766.766810897379	477.563069025327	1008.138930168114	640.392667281141	395.662696284867	1104.441155409572	577.541185875250	469.077167771896	1117.271786899079	487.718471257166	457.011441392344	1051.021178771950	423.309713447115	439.179478115596	910.831670205166	381.301608214199	386.382442780584	903.830484659387	246.944507527199	428.386041019658	991.880534062661	389.496389531279	646.093231387682	903.441166195388	293.004315241048	698.062274583277	933.986188235112	198.173463623581	630.834775378757	781.614747110683	43.874323465211	585.652318603063	952.288968911272	97.285689507345	634.303024586775	859.889266481880	37.239181641931	665.998427152921	1068.487745641968	43.332460790543	670.048115628578	717.382278353687	164.903834231975	462.034665927401	776.199170637821	137.671158463071	374.565534022248	880.839232753171	151.452683617999	395.324861690605	966.863131626349	52.619898334479	347.887866662473	940.048578843123	1065.847393460411	310.144902395821	1080.864110211596	848.578511920490	311.442263795742	914.012413241672	1081.461005954789	894.370054858554	1064.766285649785	879.178019186352	961.329111434557	
54	35.552142857143	733.611165459379	983.026883983730	591.300968386027	923.289641169106	1418.339304942926	422.126004923556	1012.137139995503	1350.379215608986	591.647055220620	913.230381800802	1423.003488975163	757.740364119914	895.689921700401	1480.308151223494	579.373033452465	962.516988396555	931.390932976201	718.836457333382	958.257349559755	951.493125099646	444.439263210658	1020.444615445441	734.209927401221	679.606899787730	945.438117603165	613.717468574304	725.346405582682	1030.738066235401	571.937646160366	646.494723212181	1035.972080289384	475.554133188358	647.685237136558	1044.288746034195	767.421861427576	478.385866057959	1009.462551733497	640.651076117254	396.378504903035	1106.962293600645	579.650681121927	469.633388898435	1121.986809795045	490.479853902176	457.404546765338	1058.040403768066	424.477589150955	439.362443119242	919.518140936648	377.221438416689	386.902876606419	918.076706890166	242.530951600571	428.402073208852	990.925476657156	387.524928908207	645.712616937681	901.456503902178	292.031386619278	697.992092070244	930.121077679359	196.990195337720	630.431625783344	775.856437030087	43.884010841843	585.611375370901	946.512881007760	97.102686971042	634.044345766413	854.111373255477	37.239182656388	665.973006926179	1062.709837798743	43.188732669130	670.097974133714	735.351634053623	153.212801380714	462.594772418730	794.758642421278	128.398050612752	374.795329574086	898.841570382321	146.178844890582	395.153527553860	988.427257057217	51.040036715993	347.122427801450	925.769059033408	1061.228665078514	312.870693543277	1045.558300376887	831.275985203536	314.243010926510	924.846610955954	1080.065445892245	894.830581292671	1088.124126989328	887.083607547384	959.282921091412	
55	35.571428571429	731.582450022921	980.857362379976	593.959053681522	919.222319624768	1415.508885438611	421.428122079150	1010.142751697429	1348.283149334170	590.148257537719	913.407552777283	1421.537757889584	757.277540836051	893.804689863818	1478.362395861517	578.745968454279	961.737521918125	929.860720613869	719.458305610616	954.855315806095	949.694501054808	444.946736094717	1019.758314339795	732.899908198508	679.636691599750	945.556098536125	612.025533196159	725.763316472476	1030.336170305986	570.572094662672	646.193990891123	1035.529387055493	473.756964607520	647.194642599690	1042.917193795842	767.929553442473	478.901726443967	1010.045232646972	640.872126414382	396.776146608256	1108.621649420077	581.555314123639	469.786412960107	1125.742843058185	493.223293508209	457.406638974402	1064.377123610221	425.687004825078	439.194624009755	927.986161220292	372.652888239626	387.054573886909	932.692009953097	237.862087373446	428.108082419068	989.387102436943	385.748613609767	645.299925908117	899.078550375399	291.111113499843	697.932776241887	926.003762786518	195.894581879874	630.031949831830	770.110876872763	43.888035772068	585.602886213091	940.697830805639	96.896970435456	633.771524488163	848.333078385544	37.235674545006	665.959352564681	1056.929342626875	43.022751586304	670.140923384069	754.387709828442	140.808071457551	462.850044811075	814.396561410685	118.489287670903	374.785286792986	917.691998357785	140.574150048292	394.759264799234	1010.983052570616	49.433058838884	346.323345532283	911.058590669754	1057.494883137070	315.195011304069	1009.862995519140	817.248621965150	317.236270029324	935.710614825884	1079.259711662031	894.789565277134	1111.670787058197	896.751037226717	955.845189169278	
56	35.590714285714	729.787271532233	979.205940572187	596.518865186159	915.067677229413	1413.189690265662	420.567314902017	1008.214800342191	1346.678447914066	588.347545305663	913.793494328864	1420.523880880884	756.564885435526	891.971769434898	1476.856626913801	577.931049664917	961.135649923219	928.698366277747	719.827441441728	951.520116506792	948.219675962631	445.261401712941	1018.758222707075	731.721008617571	679.520422692379	945.035421082741	610.657829844835	726.093043150716	1029.146737528163	569.329380362151	645.817615596006	1034.106755156539	472.226936492338	646.637726580455	1041.204180118372	768.417854028544	479.120086403616	1009.860632886105	641.161625486595	396.853944112962	1109.385252015616	583.326791220778	469.531629411279	1128.476223294977	496.013499979488	457.033100105643	1069.927320444285	427.041006053470	438.716095679755	936.176398883519	367.821892074296	386.839549242692	947.483842390014	233.232494587562	427.560949934704	987.077307695355	384.269683949491	644.887947565932	896.151742376367	290.306346501197	697.905701156540	921.556124169464	194.954446957969	629.667169721063	764.368927957656	43.885217269579	585.636651877813	934.846905947550	96.687386360433	633.512819665091	842.549205024509	37.228869534849	665.963498599078	1051.140928192546	42.846531764974	670.174919632261	774.265945233305	128.148293572110	462.816938320344	834.914442376974	108.369371958210	374.584705979649	937.155387214520	135.000495797683	394.223302820769	1034.237826151442	48.132892758890	345.639108666506	895.838667382920	1054.861979581842	317.136123900218	974.335050348197	806.689644234599	320.360268886451	946.591120794653	1079.239258389848	894.291443108355	1135.093784226654	908.343216311963	951.069830272205	
